# xmcd
#
# Track frame offsets: 
#        150
#        12115
#        22640
#        32907
#        45565
#        55592
#        66435
#        78865
#        90180
#        99545
#        111822
#        124740
#        136347
#        148757
#        160577
#        171982
#        183800
#        193592
#        201857
#        213705
#        224472
#        234122
#        243725
#        253325
#        263020
#        273720
#        284857
#        293802
#
# Disc length: 4051 seconds
#
# Revision: 3
# Processed by: cddbd v1.5.2PL0 Copyright (c) Steve Scherf et al.
# Submitted via: ExactAudioCopy v1.0b1
#
DISCID=9b0fd11c
DTITLE=Lil' Son Jackson - The Complete Imperial Recordings
DYEAR=1995
DGENRE=
TTITLE0=Let Me Down Easy (mono)
TTITLE1=My Younger Day (mono)
TTITLE2=I Wish To Go Home (mono)
TTITLE3=Black And Brown (mono)
TTITLE4=Journey Back Home (mono)
TTITLE5=Sad Letter Blues (mono)
TTITLE6=Rockin' And Rollin' #2 (mono)
TTITLE7=Lonely Blues (mono)
TTITLE8=Freight Train Blues (mono)
TTITLE9=How Long (mono)
TTITLE10=Good Ole Wagon (mono)
TTITLE11=Blues By The Hour (mono)
TTITLE12=Pulp Wood Blues (mono)
TTITLE13=Losin' My Woman (mono)
TTITLE14=Trouble Don't Last (mono)
TTITLE15=Movin' To The Country (mono)
TTITLE16=Thrill Me Baby (mono)
TTITLE17=Confession (mono)
TTITLE18=Doctor, Doctor (mono)
TTITLE19=Piggly Wiggly (mono)
TTITLE20=Dirty Work (mono)
TTITLE21=Little Girl (mono)
TTITLE22=Big Rat (mono)
TTITLE23=Sugar Mama (mono)
TTITLE24=Messin' Up (mono)
TTITLE25=Prison Bound (mono)
TTITLE26=Rollin' Mill (mono)
TTITLE27=Can't Keep A Good Man Down (mono)
EXTD=
EXTT0=
EXTT1=
EXTT2=
EXTT3=
EXTT4=
EXTT5=
EXTT6=
EXTT7=
EXTT8=
EXTT9=
EXTT10=
EXTT11=
EXTT12=
EXTT13=
EXTT14=
EXTT15=
EXTT16=
EXTT17=
EXTT18=
EXTT19=
EXTT20=
EXTT21=
EXTT22=
EXTT23=
EXTT24=
EXTT25=
EXTT26=
EXTT27=
PLAYORDER=
